<svg xmlns="http://www.w3.org/2000/svg" viewBox="0 0 128 128" width="128" height="128">
  <!-- Background -->
  <rect width="128" height="128" rx="16" fill="#1a1a2e"/>
  <!-- Load balancer arrows -->
  <rect x="12" y="56" width="28" height="16" rx="4" fill="#e94560"/>
  <!-- Arrow shaft right -->
  <rect x="44" y="62" width="20" height="4" fill="#e94560"/>
  <!-- Split top -->
  <rect x="64" y="44" width="4" height="22" fill="#e94560"/>
  <rect x="64" y="44" width="20" height="4" fill="#e94560"/>
  <!-- Split bottom -->
  <rect x="64" y="62" width="4" height="22" fill="#e94560"/>
  <rect x="64" y="80" width="20" height="4" fill="#e94560"/>
  <!-- Server blocks -->
  <rect x="86" y="36" width="30" height="16" rx="4" fill="#0f3460"/>
  <rect x="86" y="56" width="30" height="16" rx="4" fill="#0f3460"/>
  <rect x="86" y="76" width="30" height="16" rx="4" fill="#0f3460"/>
  <!-- Server lines -->
  <rect x="90" y="42" width="14" height="2" rx="1" fill="#e94560" opacity="0.8"/>
  <rect x="90" y="46" width="10" height="2" rx="1" fill="#e94560" opacity="0.4"/>
  <rect x="90" y="62" width="14" height="2" rx="1" fill="#e94560" opacity="0.8"/>
  <rect x="90" y="66" width="10" height="2" rx="1" fill="#e94560" opacity="0.4"/>
  <rect x="90" y="82" width="14" height="2" rx="1" fill="#e94560" opacity="0.8"/>
  <rect x="90" y="86" width="10" height="2" rx="1" fill="#e94560" opacity="0.4"/>
  <!-- HA text -->
  <text x="14" y="112" font-family="monospace" font-size="11" font-weight="bold" fill="#e94560">HAProxy</text>
</svg>
